<svg xmlns="http://www.w3.org/2000/svg" width="1600" height="920" viewBox="0 0 1600 920">
<rect width="100%" height="100%" fill="#f7f8fa"/>
<rect x="90" y="95" width="1460" height="790" rx="10" fill="#ffffff" stroke="#dde1e6"/>
<text x="800.0" y="55.0" font-family="Inter, Arial, sans-serif" font-size="30" fill="#17212b" text-anchor="middle" font-weight="700">Portfolio CAGR vs Nifty CAGR</text>
<text x="800.0" y="85.0" font-family="Inter, Arial, sans-serif" font-size="15" fill="#5c6770" text-anchor="middle" font-weight="400">Only months with at least 3 passing stocks included. Monthly investment assumption: Rs 100.</text>
<line x1="120" y1="118" x2="160" y2="118" stroke="#0b7285" stroke-width="4"/>
<circle cx="140" cy="118" r="5" fill="#0b7285"/>
<text x="170.0" y="123.0" font-family="Inter, Arial, sans-serif" font-size="15" fill="#27313a" text-anchor="start" font-weight="400">Portfolio CAGR</text>
<line x1="310" y1="118" x2="350" y2="118" stroke="#495057" stroke-width="4"/>
<circle cx="330" cy="118" r="5" fill="#495057"/>
<text x="360.0" y="123.0" font-family="Inter, Arial, sans-serif" font-size="15" fill="#27313a" text-anchor="start" font-weight="400">Nifty CAGR</text>
<rect x="480" y="108" width="22" height="16" fill="#2f9e44" opacity="0.82"/>
<text x="512.0" y="123.0" font-family="Inter, Arial, sans-serif" font-size="15" fill="#27313a" text-anchor="start" font-weight="400">Positive Alpha</text>
<rect x="665" y="108" width="22" height="16" fill="#c92a2a" opacity="0.82"/>
<text x="697.0" y="123.0" font-family="Inter, Arial, sans-serif" font-size="15" fill="#27313a" text-anchor="start" font-weight="400">Negative Alpha</text>
<line x1="120" y1="528.5" x2="1540" y2="528.5" stroke="#e7ebef" stroke-width="1"/>
<text x="100.0" y="533.5" font-family="Inter, Arial, sans-serif" font-size="13" fill="#69737d" text-anchor="end" font-weight="400">-20%</text>
<line x1="120" y1="465.4" x2="1540" y2="465.4" stroke="#adb5bd" stroke-width="1.4"/>
<text x="100.0" y="470.4" font-family="Inter, Arial, sans-serif" font-size="13" fill="#69737d" text-anchor="end" font-weight="400">0%</text>
<line x1="120" y1="402.3" x2="1540" y2="402.3" stroke="#e7ebef" stroke-width="1"/>
<text x="100.0" y="407.3" font-family="Inter, Arial, sans-serif" font-size="13" fill="#69737d" text-anchor="end" font-weight="400">20%</text>
<line x1="120" y1="339.2" x2="1540" y2="339.2" stroke="#e7ebef" stroke-width="1"/>
<text x="100.0" y="344.2" font-family="Inter, Arial, sans-serif" font-size="13" fill="#69737d" text-anchor="end" font-weight="400">40%</text>
<line x1="120" y1="276.2" x2="1540" y2="276.2" stroke="#e7ebef" stroke-width="1"/>
<text x="100.0" y="281.2" font-family="Inter, Arial, sans-serif" font-size="13" fill="#69737d" text-anchor="end" font-weight="400">60%</text>
<line x1="120" y1="213.1" x2="1540" y2="213.1" stroke="#e7ebef" stroke-width="1"/>
<text x="100.0" y="218.1" font-family="Inter, Arial, sans-serif" font-size="13" fill="#69737d" text-anchor="end" font-weight="400">80%</text>
<line x1="120" y1="150.0" x2="1540" y2="150.0" stroke="#e7ebef" stroke-width="1"/>
<text x="100.0" y="155.0" font-family="Inter, Arial, sans-serif" font-size="13" fill="#69737d" text-anchor="end" font-weight="400">100%</text>
<text transform="rotate(-90 38 355)" x="38.0" y="355.0" font-family="Inter, Arial, sans-serif" font-size="15" fill="#27313a" text-anchor="middle" font-weight="600">CAGR (%)</text>
<line x1="120" y1="822.6" x2="1540" y2="822.6" stroke="#e7ebef" stroke-width="1"/>
<text x="100.0" y="827.6" font-family="Inter, Arial, sans-serif" font-size="13" fill="#69737d" text-anchor="end" font-weight="400">-20%</text>
<line x1="120" y1="797.8" x2="1540" y2="797.8" stroke="#343a40" stroke-width="1.3"/>
<text x="100.0" y="802.8" font-family="Inter, Arial, sans-serif" font-size="13" fill="#69737d" text-anchor="end" font-weight="400">0%</text>
<line x1="120" y1="772.9" x2="1540" y2="772.9" stroke="#e7ebef" stroke-width="1"/>
<text x="100.0" y="777.9" font-family="Inter, Arial, sans-serif" font-size="13" fill="#69737d" text-anchor="end" font-weight="400">20%</text>
<line x1="120" y1="748.1" x2="1540" y2="748.1" stroke="#e7ebef" stroke-width="1"/>
<text x="100.0" y="753.1" font-family="Inter, Arial, sans-serif" font-size="13" fill="#69737d" text-anchor="end" font-weight="400">40%</text>
<line x1="120" y1="723.3" x2="1540" y2="723.3" stroke="#e7ebef" stroke-width="1"/>
<text x="100.0" y="728.3" font-family="Inter, Arial, sans-serif" font-size="13" fill="#69737d" text-anchor="end" font-weight="400">60%</text>
<line x1="120" y1="698.4" x2="1540" y2="698.4" stroke="#e7ebef" stroke-width="1"/>
<text x="100.0" y="703.4" font-family="Inter, Arial, sans-serif" font-size="13" fill="#69737d" text-anchor="end" font-weight="400">80%</text>
<line x1="120" y1="673.6" x2="1540" y2="673.6" stroke="#e7ebef" stroke-width="1"/>
<text x="100.0" y="678.6" font-family="Inter, Arial, sans-serif" font-size="13" fill="#69737d" text-anchor="end" font-weight="400">100%</text>
<text transform="rotate(-90 38 745)" x="38.0" y="745.0" font-family="Inter, Arial, sans-serif" font-size="15" fill="#27313a" text-anchor="middle" font-weight="600">Alpha (%)</text>
<line x1="228.9" y1="150" x2="228.9" y2="835" stroke="#f0f2f4" stroke-width="1"/>
<text x="228.9" y="870.0" font-family="Inter, Arial, sans-serif" font-size="14" fill="#5c6770" text-anchor="middle" font-weight="400">2016</text>
<line x1="359.2" y1="150" x2="359.2" y2="835" stroke="#f0f2f4" stroke-width="1"/>
<text x="359.2" y="870.0" font-family="Inter, Arial, sans-serif" font-size="14" fill="#5c6770" text-anchor="middle" font-weight="400">2017</text>
<line x1="489.1" y1="150" x2="489.1" y2="835" stroke="#f0f2f4" stroke-width="1"/>
<text x="489.1" y="870.0" font-family="Inter, Arial, sans-serif" font-size="14" fill="#5c6770" text-anchor="middle" font-weight="400">2018</text>
<line x1="619.0" y1="150" x2="619.0" y2="835" stroke="#f0f2f4" stroke-width="1"/>
<text x="619.0" y="870.0" font-family="Inter, Arial, sans-serif" font-size="14" fill="#5c6770" text-anchor="middle" font-weight="400">2019</text>
<line x1="748.9" y1="150" x2="748.9" y2="835" stroke="#f0f2f4" stroke-width="1"/>
<text x="748.9" y="870.0" font-family="Inter, Arial, sans-serif" font-size="14" fill="#5c6770" text-anchor="middle" font-weight="400">2020</text>
<line x1="879.1" y1="150" x2="879.1" y2="835" stroke="#f0f2f4" stroke-width="1"/>
<text x="879.1" y="870.0" font-family="Inter, Arial, sans-serif" font-size="14" fill="#5c6770" text-anchor="middle" font-weight="400">2021</text>
<line x1="1009.0" y1="150" x2="1009.0" y2="835" stroke="#f0f2f4" stroke-width="1"/>
<text x="1009.0" y="870.0" font-family="Inter, Arial, sans-serif" font-size="14" fill="#5c6770" text-anchor="middle" font-weight="400">2022</text>
<line x1="1138.9" y1="150" x2="1138.9" y2="835" stroke="#f0f2f4" stroke-width="1"/>
<text x="1138.9" y="870.0" font-family="Inter, Arial, sans-serif" font-size="14" fill="#5c6770" text-anchor="middle" font-weight="400">2023</text>
<line x1="1268.8" y1="150" x2="1268.8" y2="835" stroke="#f0f2f4" stroke-width="1"/>
<text x="1268.8" y="870.0" font-family="Inter, Arial, sans-serif" font-size="14" fill="#5c6770" text-anchor="middle" font-weight="400">2024</text>
<line x1="1399.1" y1="150" x2="1399.1" y2="835" stroke="#f0f2f4" stroke-width="1"/>
<text x="1399.1" y="870.0" font-family="Inter, Arial, sans-serif" font-size="14" fill="#5c6770" text-anchor="middle" font-weight="400">2025</text>
<line x1="1529.0" y1="150" x2="1529.0" y2="835" stroke="#f0f2f4" stroke-width="1"/>
<text x="1529.0" y="870.0" font-family="Inter, Arial, sans-serif" font-size="14" fill="#5c6770" text-anchor="middle" font-weight="400">2026</text>
<text x="830.0" y="905.0" font-family="Inter, Arial, sans-serif" font-size="15" fill="#27313a" text-anchor="middle" font-weight="600">Portfolio Date</text>
<rect x="116.5" y="787.7" width="7" height="10.1" fill="#2f9e44" opacity="0.82"/>
<rect x="127.5" y="786.7" width="7" height="11.1" fill="#2f9e44" opacity="0.82"/>
<rect x="138.2" y="794.4" width="7" height="3.3" fill="#2f9e44" opacity="0.82"/>
<rect x="149.2" y="781.6" width="7" height="16.1" fill="#2f9e44" opacity="0.82"/>
<rect x="182.0" y="793.2" width="7" height="4.6" fill="#2f9e44" opacity="0.82"/>
<rect x="192.7" y="797.8" width="7" height="4.5" fill="#c92a2a" opacity="0.82"/>
<rect x="203.7" y="786.3" width="7" height="11.5" fill="#2f9e44" opacity="0.82"/>
<rect x="214.4" y="775.7" width="7" height="22.1" fill="#2f9e44" opacity="0.82"/>
<rect x="225.4" y="782.1" width="7" height="15.6" fill="#2f9e44" opacity="0.82"/>
<rect x="236.4" y="774.2" width="7" height="23.6" fill="#2f9e44" opacity="0.82"/>
<rect x="246.8" y="789.1" width="7" height="8.7" fill="#2f9e44" opacity="0.82"/>
<rect x="322.9" y="792.0" width="7" height="5.8" fill="#2f9e44" opacity="0.82"/>
<rect x="333.9" y="797.8" width="7" height="7.7" fill="#c92a2a" opacity="0.82"/>
<rect x="355.7" y="789.1" width="7" height="8.7" fill="#2f9e44" opacity="0.82"/>
<rect x="366.7" y="797.8" width="7" height="15.8" fill="#c92a2a" opacity="0.82"/>
<rect x="376.7" y="797.8" width="7" height="6.8" fill="#c92a2a" opacity="0.82"/>
<rect x="387.7" y="796.6" width="7" height="1.2" fill="#2f9e44" opacity="0.82"/>
<rect x="398.4" y="797.8" width="7" height="5.5" fill="#c92a2a" opacity="0.82"/>
<rect x="409.4" y="790.1" width="7" height="7.6" fill="#2f9e44" opacity="0.82"/>
<rect x="420.1" y="786.1" width="7" height="11.7" fill="#2f9e44" opacity="0.82"/>
<rect x="431.1" y="791.5" width="7" height="6.3" fill="#2f9e44" opacity="0.82"/>
<rect x="442.1" y="788.3" width="7" height="9.4" fill="#2f9e44" opacity="0.82"/>
<rect x="452.8" y="792.1" width="7" height="5.7" fill="#2f9e44" opacity="0.82"/>
<rect x="463.8" y="779.5" width="7" height="18.3" fill="#2f9e44" opacity="0.82"/>
<rect x="474.5" y="790.8" width="7" height="6.9" fill="#2f9e44" opacity="0.82"/>
<rect x="485.6" y="771.4" width="7" height="26.4" fill="#2f9e44" opacity="0.82"/>
<rect x="496.6" y="791.1" width="7" height="6.7" fill="#2f9e44" opacity="0.82"/>
<rect x="517.6" y="788.9" width="7" height="8.9" fill="#2f9e44" opacity="0.82"/>
<rect x="528.3" y="787.7" width="7" height="10.1" fill="#2f9e44" opacity="0.82"/>
<rect x="539.3" y="796.4" width="7" height="1.4" fill="#2f9e44" opacity="0.82"/>
<rect x="550.0" y="795.8" width="7" height="2.0" fill="#2f9e44" opacity="0.82"/>
<rect x="658.2" y="791.8" width="7" height="6.0" fill="#2f9e44" opacity="0.82"/>
<rect x="745.4" y="759.3" width="7" height="38.4" fill="#2f9e44" opacity="0.82"/>
<rect x="756.4" y="785.8" width="7" height="11.9" fill="#2f9e44" opacity="0.82"/>
<rect x="766.7" y="786.8" width="7" height="10.9" fill="#2f9e44" opacity="0.82"/>
<rect x="777.7" y="776.7" width="7" height="21.1" fill="#2f9e44" opacity="0.82"/>
<rect x="832.2" y="784.4" width="7" height="13.3" fill="#2f9e44" opacity="0.82"/>
<rect x="853.9" y="789.7" width="7" height="8.1" fill="#2f9e44" opacity="0.82"/>
<rect x="864.6" y="755.8" width="7" height="42.0" fill="#2f9e44" opacity="0.82"/>
<rect x="875.6" y="776.5" width="7" height="21.3" fill="#2f9e44" opacity="0.82"/>
<rect x="886.6" y="774.2" width="7" height="23.6" fill="#2f9e44" opacity="0.82"/>
<rect x="896.6" y="770.7" width="7" height="27.0" fill="#2f9e44" opacity="0.82"/>
<rect x="907.6" y="797.8" width="7" height="1.4" fill="#c92a2a" opacity="0.82"/>
<rect x="918.3" y="782.9" width="7" height="14.9" fill="#2f9e44" opacity="0.82"/>
<rect x="929.4" y="762.6" width="7" height="35.1" fill="#2f9e44" opacity="0.82"/>
<rect x="940.0" y="781.6" width="7" height="16.2" fill="#2f9e44" opacity="0.82"/>
<rect x="951.1" y="787.5" width="7" height="10.2" fill="#2f9e44" opacity="0.82"/>
<rect x="962.1" y="769.9" width="7" height="27.8" fill="#2f9e44" opacity="0.82"/>
<rect x="972.8" y="783.0" width="7" height="14.7" fill="#2f9e44" opacity="0.82"/>
<rect x="983.8" y="781.9" width="7" height="15.9" fill="#2f9e44" opacity="0.82"/>
<rect x="994.5" y="779.9" width="7" height="17.8" fill="#2f9e44" opacity="0.82"/>
<rect x="1005.5" y="754.3" width="7" height="43.4" fill="#2f9e44" opacity="0.82"/>
<rect x="1016.5" y="780.2" width="7" height="17.5" fill="#2f9e44" opacity="0.82"/>
<rect x="1026.5" y="766.4" width="7" height="31.4" fill="#2f9e44" opacity="0.82"/>
<rect x="1037.5" y="752.7" width="7" height="45.1" fill="#2f9e44" opacity="0.82"/>
<rect x="1048.2" y="792.8" width="7" height="4.9" fill="#2f9e44" opacity="0.82"/>
<rect x="1069.9" y="797.8" width="7" height="5.5" fill="#c92a2a" opacity="0.82"/>
<rect x="1081.0" y="793.4" width="7" height="4.3" fill="#2f9e44" opacity="0.82"/>
<rect x="1102.7" y="787.4" width="7" height="10.4" fill="#2f9e44" opacity="0.82"/>
<rect x="1113.7" y="788.3" width="7" height="9.5" fill="#2f9e44" opacity="0.82"/>
<rect x="1124.4" y="794.3" width="7" height="3.5" fill="#2f9e44" opacity="0.82"/>
<rect x="1146.4" y="767.9" width="7" height="29.9" fill="#2f9e44" opacity="0.82"/>
<rect x="1156.4" y="761.6" width="7" height="36.1" fill="#2f9e44" opacity="0.82"/>
<rect x="1167.4" y="797.8" width="7" height="1.0" fill="#c92a2a" opacity="0.82"/>
<rect x="1178.1" y="782.8" width="7" height="15.0" fill="#2f9e44" opacity="0.82"/>
<rect x="1189.2" y="767.3" width="7" height="30.5" fill="#2f9e44" opacity="0.82"/>
<rect x="1199.8" y="782.6" width="7" height="15.2" fill="#2f9e44" opacity="0.82"/>
<rect x="1210.9" y="790.7" width="7" height="7.1" fill="#2f9e44" opacity="0.82"/>
<rect x="1221.9" y="774.2" width="7" height="23.5" fill="#2f9e44" opacity="0.82"/>
<rect x="1232.6" y="782.9" width="7" height="14.9" fill="#2f9e44" opacity="0.82"/>
<rect x="1243.6" y="792.8" width="7" height="4.9" fill="#2f9e44" opacity="0.82"/>
<rect x="1254.3" y="747.2" width="7" height="50.5" fill="#2f9e44" opacity="0.82"/>
<rect x="1265.3" y="791.7" width="7" height="6.1" fill="#2f9e44" opacity="0.82"/>
<rect x="1276.3" y="781.0" width="7" height="16.7" fill="#2f9e44" opacity="0.82"/>
<rect x="1286.7" y="794.6" width="7" height="3.2" fill="#2f9e44" opacity="0.82"/>
<rect x="1297.7" y="787.3" width="7" height="10.5" fill="#2f9e44" opacity="0.82"/>
<rect x="1308.4" y="758.8" width="7" height="39.0" fill="#2f9e44" opacity="0.82"/>
<rect x="1319.4" y="781.3" width="7" height="16.5" fill="#2f9e44" opacity="0.82"/>
<rect x="1330.1" y="797.8" width="7" height="30.0" fill="#c92a2a" opacity="0.82"/>
<rect x="1341.1" y="789.9" width="7" height="7.8" fill="#2f9e44" opacity="0.82"/>
<rect x="1352.1" y="797.8" width="7" height="10.8" fill="#c92a2a" opacity="0.82"/>
<rect x="1362.8" y="797.8" width="7" height="16.0" fill="#c92a2a" opacity="0.82"/>
<rect x="1373.9" y="797.8" width="7" height="16.7" fill="#c92a2a" opacity="0.82"/>
<rect x="1395.6" y="797.8" width="7" height="0.1" fill="#c92a2a" opacity="0.82"/>
<rect x="1482.0" y="796.5" width="7" height="1.3" fill="#2f9e44" opacity="0.82"/>
<rect x="1492.7" y="771.0" width="7" height="26.8" fill="#2f9e44" opacity="0.82"/>
<rect x="1514.4" y="705.2" width="7" height="92.6" fill="#2f9e44" opacity="0.82"/>
<rect x="1525.5" y="660.8" width="7" height="136.9" fill="#2f9e44" opacity="0.82"/>
<rect x="1536.5" y="763.4" width="7" height="34.3" fill="#2f9e44" opacity="0.82"/>
<path d="M120.0,411.2 L131.0,407.1 L141.7,425.7 L152.7,393.4 L185.5,419.4 L196.2,442.9 L207.2,402.4 L217.9,374.8 L228.9,390.2 L239.9,368.6 L250.3,404.6 L326.4,416.4 L337.4,450.0 L359.2,405.6 L370.2,469.8 L380.2,447.7 L391.2,428.3 L401.9,445.2 L412.9,412.8 L423.6,402.1 L434.6,417.4 L445.6,408.6 L456.3,417.4 L467.3,387.3 L478.0,414.5 L489.1,366.0 L500.1,417.9 L521.1,408.6 L531.8,407.2 L542.8,428.9 L553.5,426.9 L661.7,417.3 L748.9,333.2 L759.9,397.9 L770.2,397.2 L781.2,353.4 L835.7,389.2 L857.4,402.2 L868.1,322.9 L879.1,379.2 L890.1,373.9 L900.1,366.9 L911.1,439.0 L921.8,396.2 L932.9,348.3 L943.5,396.4 L954.6,412.0 L965.6,371.8 L976.3,406.6 L987.3,404.9 L998.0,396.4 L1009.0,332.8 L1020.0,398.1 L1030.0,358.0 L1041.0,327.5 L1051.7,426.3 L1073.4,444.7 L1084.5,427.3 L1106.2,408.4 L1117.2,416.6 L1127.9,434.6 L1149.9,359.9 L1159.9,342.4 L1170.9,435.6 L1181.6,398.5 L1192.7,360.6 L1203.3,403.6 L1214.4,425.8 L1225.4,381.5 L1236.1,403.4 L1247.1,424.3 L1257.8,316.1 L1268.8,437.6 L1279.8,409.8 L1290.2,447.8 L1301.2,429.6 L1311.9,358.2 L1322.9,419.0 L1333.6,542.7 L1344.6,452.4 L1355.6,501.7 L1366.3,519.0 L1377.4,510.5 L1399.1,463.6 L1485.5,472.1 L1496.2,411.7 L1517.9,273.2 L1529.0,166.4 L1540.0,410.0" fill="none" stroke="#0b7285" stroke-width="4" stroke-linejoin="round" stroke-linecap="round"/>
<path d="M120.0,436.8 L131.0,435.3 L141.7,434.2 L152.7,434.3 L185.5,431.0 L196.2,431.4 L207.2,431.5 L217.9,430.8 L228.9,429.8 L239.9,428.5 L250.3,426.7 L326.4,431.1 L337.4,430.3 L359.2,427.7 L370.2,429.7 L380.2,430.3 L391.2,431.2 L401.9,431.2 L412.9,432.1 L423.6,431.8 L434.6,433.4 L445.6,432.6 L456.3,431.8 L467.3,433.7 L478.0,432.1 L489.1,433.1 L500.1,434.9 L521.1,431.1 L531.8,432.8 L542.8,432.4 L553.5,431.9 L661.7,432.4 L748.9,430.9 L759.9,428.2 L770.2,425.0 L781.2,406.9 L835.7,423.1 L857.4,422.8 L868.1,429.5 L879.1,433.2 L890.1,433.8 L900.1,435.5 L911.1,435.5 L921.8,433.9 L932.9,437.6 L943.5,437.6 L954.6,438.0 L965.6,442.6 L976.3,444.0 L987.3,445.2 L998.0,441.7 L1009.0,443.2 L1020.0,442.6 L1030.0,437.7 L1041.0,442.1 L1051.7,438.8 L1073.4,430.7 L1084.5,438.4 L1106.2,434.7 L1117.2,440.7 L1127.9,443.5 L1149.9,435.8 L1159.9,434.1 L1170.9,433.0 L1181.6,436.7 L1192.7,437.9 L1203.3,442.1 L1214.4,443.8 L1225.4,441.4 L1236.1,441.2 L1247.1,436.8 L1257.8,444.4 L1268.8,453.0 L1279.8,452.3 L1290.2,455.8 L1301.2,456.3 L1311.9,457.2 L1322.9,460.9 L1333.6,466.6 L1344.6,472.3 L1355.6,474.4 L1366.3,478.3 L1377.4,468.0 L1399.1,463.5 L1485.5,475.3 L1496.2,479.7 L1517.9,508.4 L1529.0,514.3 L1540.0,497.1" fill="none" stroke="#495057" stroke-width="3.4" stroke-linejoin="round" stroke-linecap="round"/>
<circle cx="120.0" cy="411.2" r="3.8" fill="#0b7285"/>
<circle cx="131.0" cy="407.1" r="3.8" fill="#0b7285"/>
<circle cx="141.7" cy="425.7" r="3.8" fill="#0b7285"/>
<circle cx="152.7" cy="393.4" r="3.8" fill="#0b7285"/>
<circle cx="185.5" cy="419.4" r="3.8" fill="#0b7285"/>
<circle cx="196.2" cy="442.9" r="3.8" fill="#0b7285"/>
<circle cx="207.2" cy="402.4" r="3.8" fill="#0b7285"/>
<circle cx="217.9" cy="374.8" r="3.8" fill="#0b7285"/>
<circle cx="228.9" cy="390.2" r="3.8" fill="#0b7285"/>
<circle cx="239.9" cy="368.6" r="3.8" fill="#0b7285"/>
<circle cx="250.3" cy="404.6" r="3.8" fill="#0b7285"/>
<circle cx="326.4" cy="416.4" r="3.8" fill="#0b7285"/>
<circle cx="337.4" cy="450.0" r="3.8" fill="#0b7285"/>
<circle cx="359.2" cy="405.6" r="3.8" fill="#0b7285"/>
<circle cx="370.2" cy="469.8" r="3.8" fill="#0b7285"/>
<circle cx="380.2" cy="447.7" r="3.8" fill="#0b7285"/>
<circle cx="391.2" cy="428.3" r="3.8" fill="#0b7285"/>
<circle cx="401.9" cy="445.2" r="3.8" fill="#0b7285"/>
<circle cx="412.9" cy="412.8" r="3.8" fill="#0b7285"/>
<circle cx="423.6" cy="402.1" r="3.8" fill="#0b7285"/>
<circle cx="434.6" cy="417.4" r="3.8" fill="#0b7285"/>
<circle cx="445.6" cy="408.6" r="3.8" fill="#0b7285"/>
<circle cx="456.3" cy="417.4" r="3.8" fill="#0b7285"/>
<circle cx="467.3" cy="387.3" r="3.8" fill="#0b7285"/>
<circle cx="478.0" cy="414.5" r="3.8" fill="#0b7285"/>
<circle cx="489.1" cy="366.0" r="3.8" fill="#0b7285"/>
<circle cx="500.1" cy="417.9" r="3.8" fill="#0b7285"/>
<circle cx="521.1" cy="408.6" r="3.8" fill="#0b7285"/>
<circle cx="531.8" cy="407.2" r="3.8" fill="#0b7285"/>
<circle cx="542.8" cy="428.9" r="3.8" fill="#0b7285"/>
<circle cx="553.5" cy="426.9" r="3.8" fill="#0b7285"/>
<circle cx="661.7" cy="417.3" r="3.8" fill="#0b7285"/>
<circle cx="748.9" cy="333.2" r="3.8" fill="#0b7285"/>
<circle cx="759.9" cy="397.9" r="3.8" fill="#0b7285"/>
<circle cx="770.2" cy="397.2" r="3.8" fill="#0b7285"/>
<circle cx="781.2" cy="353.4" r="3.8" fill="#0b7285"/>
<circle cx="835.7" cy="389.2" r="3.8" fill="#0b7285"/>
<circle cx="857.4" cy="402.2" r="3.8" fill="#0b7285"/>
<circle cx="868.1" cy="322.9" r="3.8" fill="#0b7285"/>
<circle cx="879.1" cy="379.2" r="3.8" fill="#0b7285"/>
<circle cx="890.1" cy="373.9" r="3.8" fill="#0b7285"/>
<circle cx="900.1" cy="366.9" r="3.8" fill="#0b7285"/>
<circle cx="911.1" cy="439.0" r="3.8" fill="#0b7285"/>
<circle cx="921.8" cy="396.2" r="3.8" fill="#0b7285"/>
<circle cx="932.9" cy="348.3" r="3.8" fill="#0b7285"/>
<circle cx="943.5" cy="396.4" r="3.8" fill="#0b7285"/>
<circle cx="954.6" cy="412.0" r="3.8" fill="#0b7285"/>
<circle cx="965.6" cy="371.8" r="3.8" fill="#0b7285"/>
<circle cx="976.3" cy="406.6" r="3.8" fill="#0b7285"/>
<circle cx="987.3" cy="404.9" r="3.8" fill="#0b7285"/>
<circle cx="998.0" cy="396.4" r="3.8" fill="#0b7285"/>
<circle cx="1009.0" cy="332.8" r="3.8" fill="#0b7285"/>
<circle cx="1020.0" cy="398.1" r="3.8" fill="#0b7285"/>
<circle cx="1030.0" cy="358.0" r="3.8" fill="#0b7285"/>
<circle cx="1041.0" cy="327.5" r="3.8" fill="#0b7285"/>
<circle cx="1051.7" cy="426.3" r="3.8" fill="#0b7285"/>
<circle cx="1073.4" cy="444.7" r="3.8" fill="#0b7285"/>
<circle cx="1084.5" cy="427.3" r="3.8" fill="#0b7285"/>
<circle cx="1106.2" cy="408.4" r="3.8" fill="#0b7285"/>
<circle cx="1117.2" cy="416.6" r="3.8" fill="#0b7285"/>
<circle cx="1127.9" cy="434.6" r="3.8" fill="#0b7285"/>
<circle cx="1149.9" cy="359.9" r="3.8" fill="#0b7285"/>
<circle cx="1159.9" cy="342.4" r="3.8" fill="#0b7285"/>
<circle cx="1170.9" cy="435.6" r="3.8" fill="#0b7285"/>
<circle cx="1181.6" cy="398.5" r="3.8" fill="#0b7285"/>
<circle cx="1192.7" cy="360.6" r="3.8" fill="#0b7285"/>
<circle cx="1203.3" cy="403.6" r="3.8" fill="#0b7285"/>
<circle cx="1214.4" cy="425.8" r="3.8" fill="#0b7285"/>
<circle cx="1225.4" cy="381.5" r="3.8" fill="#0b7285"/>
<circle cx="1236.1" cy="403.4" r="3.8" fill="#0b7285"/>
<circle cx="1247.1" cy="424.3" r="3.8" fill="#0b7285"/>
<circle cx="1257.8" cy="316.1" r="3.8" fill="#0b7285"/>
<circle cx="1268.8" cy="437.6" r="3.8" fill="#0b7285"/>
<circle cx="1279.8" cy="409.8" r="3.8" fill="#0b7285"/>
<circle cx="1290.2" cy="447.8" r="3.8" fill="#0b7285"/>
<circle cx="1301.2" cy="429.6" r="3.8" fill="#0b7285"/>
<circle cx="1311.9" cy="358.2" r="3.8" fill="#0b7285"/>
<circle cx="1322.9" cy="419.0" r="3.8" fill="#0b7285"/>
<circle cx="1333.6" cy="542.7" r="3.8" fill="#0b7285"/>
<circle cx="1344.6" cy="452.4" r="3.8" fill="#0b7285"/>
<circle cx="1355.6" cy="501.7" r="3.8" fill="#0b7285"/>
<circle cx="1366.3" cy="519.0" r="3.8" fill="#0b7285"/>
<circle cx="1377.4" cy="510.5" r="3.8" fill="#0b7285"/>
<circle cx="1399.1" cy="463.6" r="3.8" fill="#0b7285"/>
<circle cx="1485.5" cy="472.1" r="3.8" fill="#0b7285"/>
<circle cx="1496.2" cy="411.7" r="3.8" fill="#0b7285"/>
<circle cx="1517.9" cy="273.2" r="3.8" fill="#0b7285"/>
<circle cx="1529.0" cy="166.4" r="3.8" fill="#0b7285"/>
<circle cx="1540.0" cy="410.0" r="3.8" fill="#0b7285"/>
<circle cx="120.0" cy="436.8" r="3.2" fill="#495057"/>
<circle cx="131.0" cy="435.3" r="3.2" fill="#495057"/>
<circle cx="141.7" cy="434.2" r="3.2" fill="#495057"/>
<circle cx="152.7" cy="434.3" r="3.2" fill="#495057"/>
<circle cx="185.5" cy="431.0" r="3.2" fill="#495057"/>
<circle cx="196.2" cy="431.4" r="3.2" fill="#495057"/>
<circle cx="207.2" cy="431.5" r="3.2" fill="#495057"/>
<circle cx="217.9" cy="430.8" r="3.2" fill="#495057"/>
<circle cx="228.9" cy="429.8" r="3.2" fill="#495057"/>
<circle cx="239.9" cy="428.5" r="3.2" fill="#495057"/>
<circle cx="250.3" cy="426.7" r="3.2" fill="#495057"/>
<circle cx="326.4" cy="431.1" r="3.2" fill="#495057"/>
<circle cx="337.4" cy="430.3" r="3.2" fill="#495057"/>
<circle cx="359.2" cy="427.7" r="3.2" fill="#495057"/>
<circle cx="370.2" cy="429.7" r="3.2" fill="#495057"/>
<circle cx="380.2" cy="430.3" r="3.2" fill="#495057"/>
<circle cx="391.2" cy="431.2" r="3.2" fill="#495057"/>
<circle cx="401.9" cy="431.2" r="3.2" fill="#495057"/>
<circle cx="412.9" cy="432.1" r="3.2" fill="#495057"/>
<circle cx="423.6" cy="431.8" r="3.2" fill="#495057"/>
<circle cx="434.6" cy="433.4" r="3.2" fill="#495057"/>
<circle cx="445.6" cy="432.6" r="3.2" fill="#495057"/>
<circle cx="456.3" cy="431.8" r="3.2" fill="#495057"/>
<circle cx="467.3" cy="433.7" r="3.2" fill="#495057"/>
<circle cx="478.0" cy="432.1" r="3.2" fill="#495057"/>
<circle cx="489.1" cy="433.1" r="3.2" fill="#495057"/>
<circle cx="500.1" cy="434.9" r="3.2" fill="#495057"/>
<circle cx="521.1" cy="431.1" r="3.2" fill="#495057"/>
<circle cx="531.8" cy="432.8" r="3.2" fill="#495057"/>
<circle cx="542.8" cy="432.4" r="3.2" fill="#495057"/>
<circle cx="553.5" cy="431.9" r="3.2" fill="#495057"/>
<circle cx="661.7" cy="432.4" r="3.2" fill="#495057"/>
<circle cx="748.9" cy="430.9" r="3.2" fill="#495057"/>
<circle cx="759.9" cy="428.2" r="3.2" fill="#495057"/>
<circle cx="770.2" cy="425.0" r="3.2" fill="#495057"/>
<circle cx="781.2" cy="406.9" r="3.2" fill="#495057"/>
<circle cx="835.7" cy="423.1" r="3.2" fill="#495057"/>
<circle cx="857.4" cy="422.8" r="3.2" fill="#495057"/>
<circle cx="868.1" cy="429.5" r="3.2" fill="#495057"/>
<circle cx="879.1" cy="433.2" r="3.2" fill="#495057"/>
<circle cx="890.1" cy="433.8" r="3.2" fill="#495057"/>
<circle cx="900.1" cy="435.5" r="3.2" fill="#495057"/>
<circle cx="911.1" cy="435.5" r="3.2" fill="#495057"/>
<circle cx="921.8" cy="433.9" r="3.2" fill="#495057"/>
<circle cx="932.9" cy="437.6" r="3.2" fill="#495057"/>
<circle cx="943.5" cy="437.6" r="3.2" fill="#495057"/>
<circle cx="954.6" cy="438.0" r="3.2" fill="#495057"/>
<circle cx="965.6" cy="442.6" r="3.2" fill="#495057"/>
<circle cx="976.3" cy="444.0" r="3.2" fill="#495057"/>
<circle cx="987.3" cy="445.2" r="3.2" fill="#495057"/>
<circle cx="998.0" cy="441.7" r="3.2" fill="#495057"/>
<circle cx="1009.0" cy="443.2" r="3.2" fill="#495057"/>
<circle cx="1020.0" cy="442.6" r="3.2" fill="#495057"/>
<circle cx="1030.0" cy="437.7" r="3.2" fill="#495057"/>
<circle cx="1041.0" cy="442.1" r="3.2" fill="#495057"/>
<circle cx="1051.7" cy="438.8" r="3.2" fill="#495057"/>
<circle cx="1073.4" cy="430.7" r="3.2" fill="#495057"/>
<circle cx="1084.5" cy="438.4" r="3.2" fill="#495057"/>
<circle cx="1106.2" cy="434.7" r="3.2" fill="#495057"/>
<circle cx="1117.2" cy="440.7" r="3.2" fill="#495057"/>
<circle cx="1127.9" cy="443.5" r="3.2" fill="#495057"/>
<circle cx="1149.9" cy="435.8" r="3.2" fill="#495057"/>
<circle cx="1159.9" cy="434.1" r="3.2" fill="#495057"/>
<circle cx="1170.9" cy="433.0" r="3.2" fill="#495057"/>
<circle cx="1181.6" cy="436.7" r="3.2" fill="#495057"/>
<circle cx="1192.7" cy="437.9" r="3.2" fill="#495057"/>
<circle cx="1203.3" cy="442.1" r="3.2" fill="#495057"/>
<circle cx="1214.4" cy="443.8" r="3.2" fill="#495057"/>
<circle cx="1225.4" cy="441.4" r="3.2" fill="#495057"/>
<circle cx="1236.1" cy="441.2" r="3.2" fill="#495057"/>
<circle cx="1247.1" cy="436.8" r="3.2" fill="#495057"/>
<circle cx="1257.8" cy="444.4" r="3.2" fill="#495057"/>
<circle cx="1268.8" cy="453.0" r="3.2" fill="#495057"/>
<circle cx="1279.8" cy="452.3" r="3.2" fill="#495057"/>
<circle cx="1290.2" cy="455.8" r="3.2" fill="#495057"/>
<circle cx="1301.2" cy="456.3" r="3.2" fill="#495057"/>
<circle cx="1311.9" cy="457.2" r="3.2" fill="#495057"/>
<circle cx="1322.9" cy="460.9" r="3.2" fill="#495057"/>
<circle cx="1333.6" cy="466.6" r="3.2" fill="#495057"/>
<circle cx="1344.6" cy="472.3" r="3.2" fill="#495057"/>
<circle cx="1355.6" cy="474.4" r="3.2" fill="#495057"/>
<circle cx="1366.3" cy="478.3" r="3.2" fill="#495057"/>
<circle cx="1377.4" cy="468.0" r="3.2" fill="#495057"/>
<circle cx="1399.1" cy="463.5" r="3.2" fill="#495057"/>
<circle cx="1485.5" cy="475.3" r="3.2" fill="#495057"/>
<circle cx="1496.2" cy="479.7" r="3.2" fill="#495057"/>
<circle cx="1517.9" cy="508.4" r="3.2" fill="#495057"/>
<circle cx="1529.0" cy="514.3" r="3.2" fill="#495057"/>
<circle cx="1540.0" cy="497.1" r="3.2" fill="#495057"/>
<text x="1529.0" y="150.4" font-family="Inter, Arial, sans-serif" font-size="13" fill="#17212b" text-anchor="middle" font-weight="600">Highest Portfolio CAGR: Jan-2026 (94.79%)</text>
<text x="1333.6" y="566.7" font-family="Inter, Arial, sans-serif" font-size="13" fill="#17212b" text-anchor="middle" font-weight="600">Lowest Portfolio CAGR: Jul-2024 (-24.51%)</text>
</svg>